# xmcd
#
# Track frame offsets: 
#        150
#        26037
#        39793
#        55335
#        69395
#        79125
#        95737
#        115366
#        126106
#        140548
#        150962
#        167497
#        187605
#
# Disc length: 2759 seconds
#
# Revision: 2
# Processed by: cddbd v1.5.2PL0 Copyright (c) Steve Scherf et al.
# Submitted via: ExactAudioCopyFreeDBPlugin 1.0
#
DISCID=9f0ac50d
DTITLE=René Aubry - Plaisirs D'Amour
DYEAR=1998
DGENRE=World
TTITLE0=Salento
TTITLE1=Trou De Memoire
TTITLE2=Zig Zag
TTITLE3=Fil De Verre
TTITLE4=Le Vent (Georges Brassens)
TTITLE5=Sirtaki A Helsinki
TTITLE6=Demi Lune
TTITLE7=Scirocco
TTITLE8=Prima Donna
TTITLE9=Lungomare
TTITLE10=La Petite Cascade
TTITLE11=La Grande Cascade
TTITLE12=Flow
EXTD=
EXTT0=
EXTT1=
EXTT2=
EXTT3=
EXTT4=
EXTT5=
EXTT6=
EXTT7=
EXTT8=
EXTT9=
EXTT10=
EXTT11=
EXTT12=
PLAYORDER=
